# xmcd
#
# Track frame offsets: 
#        150
#        24077
#        52429
#        79656
#        102418
#        123195
#        152990
#        178066
#        199743
#        226370
#
# Disc length: 3327 seconds
#
# Revision: 0
# Processed by: cddbd v1.5.2PL0 Copyright (c) Steve Scherf et al.
# Submitted via: ExactAudioCopy v1.0b3
#
DISCID=800cfd0a
DTITLE=Manh Quynh, Kha Tu - Ky Niem Buon
DYEAR=1998
DGENRE=
TTITLE0=Yeu trong nghich canh
TTITLE1=Kha Tu - Tua canh beo troi
TTITLE2=Manh Quynh - Xin dung gian nhau
TTITLE3=Sao em no voi lay chong
TTITLE4=Kha Tu - Hat mot minh
TTITLE5=Manh Quynh - Loai hoa khong ten
TTITLE6=Kha Tu - Tinh yeu don phuong
TTITLE7=Manh Quynh - Thuyen giay chieu mua
TTITLE8=Kha Tu - Ky niem buon
TTITLE9=Manh Quynh - Gian nhau mot tuan
EXTD=
EXTT0=
EXTT1=
EXTT2=
EXTT3=
EXTT4=
EXTT5=
EXTT6=
EXTT7=
EXTT8=
EXTT9=
PLAYORDER=
